<svg xmlns="http://www.w3.org/2000/svg" xmlns:xlink="http://www.w3.org/1999/xlink" version="1.1" x="0px" y="0px" viewBox="0 0 100 100" enable-background="new 0 0 100 100" xml:space="preserve"><g><g><path d="M80,67v26V67 M82,65h-4v28c0,1.1,0.9,2,2,2s2-0.9,2-2V65L82,65z"/></g><g><path d="M50,27v66V27 M52,25h-4v68c0,1.1,0.9,2,2,2s2-0.9,2-2V25L52,25z"/></g><g><path d="M20,47v46V47 M22,45h-4v48c0,1.1,0.9,2,2,2s2-0.9,2-2V45L22,45z"/></g><g><path d="M20,7v26h0L20,7L20,7 M20,5c-1.1,0-2,0.9-2,2v28h4V7C22,5.9,21.1,5,20,5L20,5z"/></g><g><path d="M50,7v6h0L50,7L50,7 M50,5c-1.1,0-2,0.9-2,2v8h4V7C52,5.9,51.1,5,50,5L50,5z"/></g><g><path d="M80,7v46h0L80,7L80,7 M80,5c-1.1,0-2,0.9-2,2v48h4V7C82,5.9,81.1,5,80,5L80,5z"/></g><g><path d="M87,59c0.6,0,1,0.4,1,1s-0.4,1-1,1H73c-0.6,0-1-0.4-1-1s0.4-1,1-1H87 M87,57H73c-1.7,0-3,1.3-3,3s1.3,3,3,3h14    c1.7,0,3-1.3,3-3S88.7,57,87,57L87,57z"/></g><g><path d="M57,19c0.6,0,1,0.4,1,1s-0.4,1-1,1H43c-0.6,0-1-0.4-1-1s0.4-1,1-1H57 M57,17H43c-1.7,0-3,1.3-3,3s1.3,3,3,3h14    c1.7,0,3-1.3,3-3S58.7,17,57,17L57,17z"/></g><g><path d="M27,39c0.6,0,1,0.4,1,1s-0.4,1-1,1H13c-0.6,0-1-0.4-1-1s0.4-1,1-1H27 M27,37H13c-1.7,0-3,1.3-3,3s1.3,3,3,3h14    c1.7,0,3-1.3,3-3S28.7,37,27,37L27,37z"/></g></g></svg>
