<svg xmlns="http://www.w3.org/2000/svg" xmlns:xlink="http://www.w3.org/1999/xlink" version="1.1" x="0px" y="0px" viewBox="0 0 80 80" enable-background="new 0 0 80 80" xml:space="preserve"><g><g><g><path fill="#000000" d="M60,70H23c-2.8,0-5-2.2-5-5V46h2v19c0,1.7,1.3,3,3,3h37c1.7,0,3-1.3,3-3V13c0-1.7-1.3-3-3-3H23     c-1.7,0-3,1.3-3,3v17h-2V13c0-2.8,2.2-5,5-5h37c2.8,0,5,2.2,5,5v52C65,67.8,62.8,70,60,70z"/></g><g><path fill="#000000" d="M52.2,17H30.8c-1.5,0-2.8-1.3-2.8-2.8V9h2v5.2c0,0.4,0.4,0.8,0.8,0.8h21.4c0.4,0,0.8-0.4,0.8-0.8V9h2v5.2     C55,15.7,53.7,17,52.2,17z"/></g><g><polygon fill="#000000" points="61,64 22,64 22,50 24,50 24,62 59,62 59,15 54,15 54,13 61,13    "/></g><g><polygon fill="#000000" points="24,33 22,33 22,13 29,13 29,15 24,15    "/></g></g><g><g><path fill="#000000" d="M34.4,52.3L28,50.2L14.5,36.7l4.2-4.2L32.2,46L34.4,52.3z M29.1,48.5l2.1,0.7L30.5,47L18.7,35.2l-1.4,1.4     L29.1,48.5z"/></g><g><rect x="18.7" y="35.5" transform="matrix(0.7071 0.7071 -0.7071 0.7071 31.9095 -3.1087)" fill="#000000" width="2" height="3"/></g><g><rect x="28.3" y="45.2" transform="matrix(0.7071 0.7071 -0.7071 0.7071 41.9554 -6.8556)" fill="#000000" width="2" height="4"/></g></g><g><rect x="29" y="23" fill="#000000" width="24" height="2"/></g><g><rect x="29" y="28" fill="#000000" width="18" height="2"/></g><g><rect x="29" y="33" fill="#000000" width="23" height="2"/></g></g></svg>
