<svg xmlns="http://www.w3.org/2000/svg" xmlns:xlink="http://www.w3.org/1999/xlink" version="1.1" x="0px" y="0px" viewBox="0 0 100 125" enable-background="new 0 0 100 100" xml:space="preserve"><path fill="none" stroke="#000000" d="M66.654,61.62L53.691,74.552l-8.188,2.421l2.611-7.836l13.156-13.027  C61.271,56.109,67.036,55.025,66.654,61.62z"/><line fill="none" stroke="#000000" x1="53.723" y1="74.393" x2="48.116" y2="68.852"/><path fill="none" stroke="#000000" d="M77.375,33.313"/><polyline fill="none" stroke="#000000" points="60.359,57.018 62.514,59.964 51.016,71.717 "/><line fill="none" stroke="#000000" x1="65.507" y1="62.698" x2="62.514" y2="59.964"/><line fill="none" stroke="#000000" x1="30.75" y1="40.875" x2="68.375" y2="40.875"/><line fill="none" stroke="#000000" x1="30.75" y1="45.875" x2="68.375" y2="45.875"/><line fill="none" stroke="#000000" x1="30.75" y1="51.875" x2="68.375" y2="51.875"/><line fill="none" stroke="#000000" x1="30.75" y1="35.875" x2="67" y2="35.875"/><path fill="none" stroke="#000000" stroke-width="1.5" d="M25.292,77.395V23.978c0,0-0.213-2.951,4.635-2.738l30.633-0.052  l12.248,12.208v44.208c0,0,0.078,3.713-3.715,3.793H27.927C27.927,81.396,25.306,81.728,25.292,77.395z"/><polygon fill="none" stroke="#000000" stroke-width="0.75" points="71.604,32.125 61.395,32.125 61.375,21.959 "/></svg>